<?xml version="1.0" encoding="UTF-8" standalone="no"?>
<!-- Created with Inkscape (http://www.inkscape.org/) -->

<svg
   xmlns:dc="http://purl.org/dc/elements/1.1/"
   xmlns:cc="http://creativecommons.org/ns#"
   xmlns:rdf="http://www.w3.org/1999/02/22-rdf-syntax-ns#"
   xmlns:svg="http://www.w3.org/2000/svg"
   xmlns="http://www.w3.org/2000/svg"
   xmlns:sodipodi="http://sodipodi.sourceforge.net/DTD/sodipodi-0.dtd"
   xmlns:inkscape="http://www.inkscape.org/namespaces/inkscape"
   version="1.1"
   id="svg2"
   xml:space="preserve"
   width="377.94666"
   height="188.97333"
   viewBox="0 0 377.94666 188.97333"
   sodipodi:docname="capital-coffee-logo-no-background.svg"
   inkscape:version="0.92.3 (2405546, 2018-03-11)"><metadata
     id="metadata8"><rdf:RDF><cc:Work
         rdf:about=""><dc:format>image/svg+xml</dc:format><dc:type
           rdf:resource="http://purl.org/dc/dcmitype/StillImage" /><dc:title></dc:title></cc:Work></rdf:RDF></metadata><defs
     id="defs6"><clipPath
       clipPathUnits="userSpaceOnUse"
       id="clipPath20"><path
         d="m 142.839,67.505 v -10e-4 c 0,-2.457 0.756,-4.74 2.047,-6.63 v 0 l -2.077,-2.035 c -0.509,-0.499 -0.462,-1.369 0.1,-1.942 v 0 c 0.564,-0.574 1.434,-0.636 1.94,-0.137 v 0 l 1.959,1.926 c 1.399,-1.242 3.1,-2.155 4.973,-2.621 v 0 c 0.927,-0.243 1.89,-0.376 2.872,-0.376 v 0 c 2.337,0 4.504,0.692 6.336,1.866 v 0 l -0.001,0.004 c 1.363,0.868 2.538,2.007 3.443,3.341 v 0 l -2.551,1.744 c -1.567,-2.319 -4.221,-3.843 -7.232,-3.843 v 0 c -4.817,0 -8.718,3.896 -8.718,8.703 v 0 c 0,4.807 3.901,8.702 8.718,8.702 v 0 c 2.287,0 4.368,-0.882 5.924,-2.321 v 0 l 2.44,1.938 c -1.056,1.06 -2.316,1.918 -3.708,2.517 v 0 l 0.006,0.021 c -1.428,0.614 -3.004,0.956 -4.657,0.956 v 0 c -6.528,0 -11.814,-5.287 -11.814,-11.812"
         id="path18"
         inkscape:connector-curvature="0" /></clipPath><linearGradient
       x1="0"
       y1="0"
       x2="1"
       y2="0"
       gradientUnits="userSpaceOnUse"
       gradientTransform="matrix(21.975586,0,0,-21.975586,142.45508,67.50293)"
       spreadMethod="pad"
       id="linearGradient36"><stop
         style="stop-opacity:1;stop-color:#8cd026"
         offset="0"
         id="stop26" /><stop
         style="stop-opacity:1;stop-color:#8cd026"
         offset="0.08"
         id="stop28" /><stop
         style="stop-opacity:1;stop-color:#8cd026"
         offset="0.2648"
         id="stop30" /><stop
         style="stop-opacity:1;stop-color:#5d873e"
         offset="0.92"
         id="stop32" /><stop
         style="stop-opacity:1;stop-color:#5d873e"
         offset="1"
         id="stop34" /></linearGradient><clipPath
       clipPathUnits="userSpaceOnUse"
       id="clipPath46"><path
         d="m 38.56,67.505 v -10e-4 c 0,-2.457 0.756,-4.74 2.044,-6.63 v 0 L 38.53,58.839 C 38.021,58.34 38.066,57.47 38.628,56.897 v 0 c 0.564,-0.574 1.436,-0.636 1.941,-0.137 v 0 l 1.96,1.926 c 1.4,-1.242 3.099,-2.155 4.974,-2.621 v 0 c 0.928,-0.243 1.891,-0.376 2.873,-0.376 v 0 c 2.334,0 4.504,0.692 6.336,1.866 v 0 l -0.002,0.004 c 1.363,0.868 2.539,2.007 3.443,3.341 v 0 l -2.552,1.744 c -1.565,-2.319 -4.219,-3.843 -7.233,-3.843 v 0 c -4.815,0 -8.719,3.896 -8.719,8.703 v 0 c 0,4.807 3.904,8.702 8.719,8.702 v 0 c 2.289,0 4.371,-0.882 5.924,-2.321 v 0 l 2.444,1.938 c -1.058,1.06 -2.319,1.918 -3.712,2.517 v 0 l 0.008,0.021 c -1.427,0.614 -3.004,0.956 -4.656,0.956 v 0 C 43.847,79.317 38.56,74.03 38.56,67.505"
         id="path44"
         inkscape:connector-curvature="0" /></clipPath><linearGradient
       x1="0"
       y1="0"
       x2="1"
       y2="0"
       gradientUnits="userSpaceOnUse"
       gradientTransform="matrix(21.978516,0,0,-21.978516,38.174805,67.50293)"
       spreadMethod="pad"
       id="linearGradient62"><stop
         style="stop-opacity:1;stop-color:#8cd026"
         offset="0"
         id="stop52" /><stop
         style="stop-opacity:1;stop-color:#8cd026"
         offset="0.08"
         id="stop54" /><stop
         style="stop-opacity:1;stop-color:#8cd026"
         offset="0.2648"
         id="stop56" /><stop
         style="stop-opacity:1;stop-color:#5d873e"
         offset="0.92"
         id="stop58" /><stop
         style="stop-opacity:1;stop-color:#5d873e"
         offset="1"
         id="stop60" /></linearGradient><clipPath
       clipPathUnits="userSpaceOnUse"
       id="clipPath72"><path
         d="M 0,141.73 H 283.46 V 0 H 0 Z"
         id="path70"
         inkscape:connector-curvature="0" /></clipPath></defs><sodipodi:namedview
     pagecolor="#ffffff"
     bordercolor="#666666"
     borderopacity="1"
     objecttolerance="10"
     gridtolerance="10"
     guidetolerance="10"
     inkscape:pageopacity="0"
     inkscape:pageshadow="2"
     inkscape:window-width="1920"
     inkscape:window-height="1025"
     id="namedview4"
     showgrid="false"
     inkscape:zoom="0.90753548"
     inkscape:cx="188.97333"
     inkscape:cy="94.486664"
     inkscape:window-x="0"
     inkscape:window-y="27"
     inkscape:window-maximized="1"
     inkscape:current-layer="g10" /><g
     id="g10"
     inkscape:groupmode="layer"
     inkscape:label="FA_Logo copy"
     transform="matrix(1.3333333,0,0,-1.3333333,0,188.97333)"><g
   id="g14"><g
     id="g16"
     clip-path="url(#clipPath20)"><g
       id="g22"><g
         id="g24"><path
           d="m 142.839,67.505 v -10e-4 c 0,-2.457 0.756,-4.74 2.047,-6.63 v 0 l -2.077,-2.035 c -0.509,-0.499 -0.462,-1.369 0.1,-1.942 v 0 c 0.564,-0.574 1.434,-0.636 1.94,-0.137 v 0 l 1.959,1.926 c 1.399,-1.242 3.1,-2.155 4.973,-2.621 v 0 c 0.927,-0.243 1.89,-0.376 2.872,-0.376 v 0 c 2.337,0 4.504,0.692 6.336,1.866 v 0 l -0.001,0.004 c 1.363,0.868 2.538,2.007 3.443,3.341 v 0 l -2.551,1.744 c -1.567,-2.319 -4.221,-3.843 -7.232,-3.843 v 0 c -4.817,0 -8.718,3.896 -8.718,8.703 v 0 c 0,4.807 3.901,8.702 8.718,8.702 v 0 c 2.287,0 4.368,-0.882 5.924,-2.321 v 0 l 2.44,1.938 c -1.056,1.06 -2.316,1.918 -3.708,2.517 v 0 l 0.006,0.021 c -1.428,0.614 -3.004,0.956 -4.657,0.956 v 0 c -6.528,0 -11.814,-5.287 -11.814,-11.812"
           style="fill:url(#linearGradient36);stroke:none"
           id="path38"
           inkscape:connector-curvature="0" /></g></g></g></g><g
   id="g40"><g
     id="g42"
     clip-path="url(#clipPath46)"><g
       id="g48"><g
         id="g50"><path
           d="m 38.56,67.505 v -10e-4 c 0,-2.457 0.756,-4.74 2.044,-6.63 v 0 L 38.53,58.839 C 38.021,58.34 38.066,57.47 38.628,56.897 v 0 c 0.564,-0.574 1.436,-0.636 1.941,-0.137 v 0 l 1.96,1.926 c 1.4,-1.242 3.099,-2.155 4.974,-2.621 v 0 c 0.928,-0.243 1.891,-0.376 2.873,-0.376 v 0 c 2.334,0 4.504,0.692 6.336,1.866 v 0 l -0.002,0.004 c 1.363,0.868 2.539,2.007 3.443,3.341 v 0 l -2.552,1.744 c -1.565,-2.319 -4.219,-3.843 -7.233,-3.843 v 0 c -4.815,0 -8.719,3.896 -8.719,8.703 v 0 c 0,4.807 3.904,8.702 8.719,8.702 v 0 c 2.289,0 4.371,-0.882 5.924,-2.321 v 0 l 2.444,1.938 c -1.058,1.06 -2.319,1.918 -3.712,2.517 v 0 l 0.008,0.021 c -1.427,0.614 -3.004,0.956 -4.656,0.956 v 0 C 43.847,79.317 38.56,74.03 38.56,67.505"
           style="fill:url(#linearGradient62);stroke:none"
           id="path64"
           inkscape:connector-curvature="0" /></g></g></g></g><g
   id="g66"><g
     id="g68"
     clip-path="url(#clipPath72)"><g
       id="g74"
       transform="translate(131.5498,106.0518)"><path
         d="M 0,0 H 7.104 V -1.206 H 4.281 v -16.07 H 2.824 v 16.07 l -2.824,0 z"
         style="fill:#ffffff;fill-opacity:1;fill-rule:nonzero;stroke:none"
         id="path76"
         inkscape:connector-curvature="0" /></g><g
       id="g78"
       transform="translate(145.2705,99.9072)"><path
         d="m 0,0 c 0,1.527 -0.66,2.289 -1.979,2.289 -1.443,0 -2.162,-0.77 -2.162,-2.314 V -11.132 H -5.547 V 6.145 h 1.406 V 1.891 h 0.024 c 0.506,1.051 1.388,1.58 2.648,1.58 1.916,0 2.875,-1.14 2.875,-3.421 V -11.132 H 0 Z"
         style="fill:#ffffff;fill-opacity:1;fill-rule:nonzero;stroke:none"
         id="path80"
         inkscape:connector-curvature="0" /></g><g
       id="g82"
       transform="translate(149.4229,97.1089)"><path
         d="m 0,0 h 4.379 v 2.599 c 0,1.66 -0.723,2.488 -2.166,2.488 C 0.738,5.087 0,4.259 0,2.599 Z m 5.746,-3.345 v -1.419 c 0,-2.479 -1.162,-3.718 -3.482,-3.718 -2.43,0 -3.643,1.289 -3.643,3.868 v 7.028 c 0,2.569 1.195,3.856 3.592,3.856 2.355,0 3.533,-1.262 3.533,-3.781 V -1.094 H 0 v -3.695 c 0,-1.683 0.764,-2.524 2.289,-2.524 1.426,0 2.139,0.804 2.139,2.414 v 1.554 z"
         style="fill:#ffffff;fill-opacity:1;fill-rule:nonzero;stroke:none"
         id="path84"
         inkscape:connector-curvature="0" /></g><path
       d="M 123.688,94.786 H 38.159 v 0.76 h 85.529 z"
       style="fill:#ffffff;fill-opacity:1;fill-rule:nonzero;stroke:none"
       id="path86"
       inkscape:connector-curvature="0" /><path
       d="m 248.562,94.786 h -85.531 v 0.76 h 85.531 z"
       style="fill:#ffffff;fill-opacity:1;fill-rule:nonzero;stroke:none"
       id="path88"
       inkscape:connector-curvature="0" /><g
       id="g90"
       transform="translate(149.7451,117.2603)"><path
         d="M 0,0 C 0.217,0.169 0.436,0.333 0.678,0.467 2.799,1.633 4.26,4.146 5.098,6.004 3.537,6.898 1.408,6.632 -0.531,5.435 -0.121,4.288 0.113,2.998 0.113,1.625 0.113,1.068 0.074,0.526 0,0"
         style="fill:#ffffff;fill-opacity:1;fill-rule:nonzero;stroke:none"
         id="path92"
         inkscape:connector-curvature="0" /></g><g
       id="g94"
       transform="translate(154.8447,113.9805)"><path
         d="M 0,0 C 2.506,3.185 2.707,7.204 0.451,8.98 0.414,9.01 0.375,9.036 0.34,9.065 -0.584,6.479 -2.539,3.452 -3.889,3.088 -4.373,2.957 -4.926,2.368 -5.473,1.577 -5.884,0.212 -6.542,-0.965 -7.363,-1.851 -7.514,-2.167 -7.648,-2.466 -7.775,-2.748 -6.818,-2.877 -5.894,-3.056 -5.002,-3.281 -3.258,-2.943 -1.412,-1.797 0,0"
         style="fill:#ffffff;fill-opacity:1;fill-rule:nonzero;stroke:none"
         id="path96"
         inkscape:connector-curvature="0" /></g><g
       id="g98"
       transform="translate(136.0361,117.6074)"><path
         d="m 0,0 c -0.045,0.418 -0.074,0.842 -0.074,1.278 0,1.437 0.256,2.787 0.701,3.973 C -1.066,6.044 -2.822,6.134 -4.156,5.368 -3.355,3.588 -1.977,1.223 0,0"
         style="fill:#ffffff;fill-opacity:1;fill-rule:nonzero;stroke:none"
         id="path100"
         inkscape:connector-curvature="0" /></g><g
       id="g102"
       transform="translate(136.1963,116.5522)"><path
         d="M 0,0 C -0.148,0.105 -0.293,0.188 -0.432,0.226 -1.779,0.59 -3.736,3.619 -4.658,6.203 -4.697,6.174 -4.732,6.148 -4.771,6.119 -7.027,4.344 -6.826,0.323 -4.32,-2.862 c 1.287,-1.637 2.931,-2.731 4.533,-3.168 0.976,0.275 1.998,0.495 3.06,0.655 C 1.693,-4.349 0.484,-2.393 0,0"
         style="fill:#ffffff;fill-opacity:1;fill-rule:nonzero;stroke:none"
         id="path104"
         inkscape:connector-curvature="0" /></g><g
       id="g106"
       transform="translate(142.5205,112.5376)"><path
         d="m 0,0 c -0.652,1.818 -1.1,4.022 -0.514,5.981 0.061,0.207 0.131,0.412 0.217,0.612 1.094,2.578 0.623,5.911 0.053,8.202 C -2.281,14.494 -4.01,12.76 -4.928,10.321 -5.373,9.135 -5.629,7.785 -5.629,6.348 c 0,-0.436 0.031,-0.86 0.074,-1.278 0.039,-0.359 0.092,-0.711 0.162,-1.055 0.469,-2.317 1.618,-4.22 3.123,-5.271 0.877,0.104 1.778,0.166 2.696,0.184 C 0.283,-0.735 0.137,-0.376 0,0"
         style="fill:#ffffff;fill-opacity:1;fill-rule:nonzero;stroke:none"
         id="path108"
         inkscape:connector-curvature="0" /></g><g
       id="g110"
       transform="translate(146.5518,112.1299)"><path
         d="m 0,0 c 0.822,0.885 1.48,2.063 1.892,3.427 0.164,0.542 0.293,1.111 0.373,1.703 0.074,0.526 0.111,1.068 0.111,1.625 0,1.373 -0.234,2.663 -0.643,3.81 -0.989,2.776 -3.022,4.685 -5.374,4.685 -0.056,0 -0.109,-10e-4 -0.164,-0.004 1.012,-3.013 1.403,-7.169 0.434,-8.468 -0.363,-0.487 -0.434,-1.482 -0.348,-2.663 0.033,-0.438 0.086,-0.9 0.156,-1.372 0.168,-1.154 0.424,-2.365 0.67,-3.403 0.696,-0.005 1.383,-0.037 2.057,-0.093 C -0.541,-0.535 -0.262,-0.282 0,0"
         style="fill:#ffffff;fill-opacity:1;fill-rule:nonzero;stroke:none"
         id="path112"
         inkscape:connector-curvature="0" /></g><g
       id="g114"
       transform="translate(65.0557,70.2896)"><path
         d="M 0,0 H 6.012 V 3.006 C 6.012,4.659 4.658,6.012 3.006,6.012 1.354,6.012 0,4.659 0,3.006 Z m -6.012,0 h 3.006 v 3.006 c 0,3.306 2.705,6.014 6.012,6.014 3.308,0 6.014,-2.708 6.014,-6.014 V -15.029 H 6.012 V -3.006 H 0 v -12.023 h -3.006 v 12.023 h -1.443 z"
         style="fill:#ffffff;fill-opacity:1;fill-rule:nonzero;stroke:none"
         id="path116"
         inkscape:connector-curvature="0" /></g><g
       id="g118"
       transform="translate(87.54,73.2661)"><path
         d="m 0,0 c 0,1.653 -1.354,3.035 -3.008,3.035 h -2.945 v -6.012 h 3.006 C -1.324,-2.977 0,-1.654 0,0 m -11.965,-2.977 h 3.006 v 9.02 l 6.012,-0.03 C 0.33,5.982 3.004,3.276 3.004,0 c 0,-3.308 -2.703,-5.983 -6.012,-5.983 h -2.945 v -12.023 h -3.006 v 12.023 h -1.504 z"
         style="fill:#ffffff;fill-opacity:1;fill-rule:nonzero;stroke:none"
         id="path120"
         inkscape:connector-curvature="0" /></g><path
       d="m 92.796,79.309 h 3.008 V 55.26 h -3.008 z"
       style="fill:#ffffff;fill-opacity:1;fill-rule:nonzero;stroke:none"
       id="path122"
       inkscape:connector-curvature="0" /><g
       id="g124"
       transform="translate(98.0576,79.3091)"><path
         d="M 0,0 H 12.023 V -3.008 H 7.514 V -24.049 H 4.508 v 21.041 l -4.508,0 z"
         style="fill:#ffffff;fill-opacity:1;fill-rule:nonzero;stroke:none"
         id="path126"
         inkscape:connector-curvature="0" /></g><g
       id="g128"
       transform="translate(114.5889,70.2896)"><path
         d="M 0,0 H 6.014 V 3.006 C 6.014,4.659 4.66,6.012 3.006,6.012 1.354,6.012 0,4.659 0,3.006 Z m -6.012,0 h 3.006 v 3.006 c 0,3.306 2.705,6.014 6.012,6.014 3.306,0 6.012,-2.708 6.012,-6.014 V -15.029 H 6.014 V -3.006 H 0 v -12.023 h -3.006 v 12.023 h -1.443 z"
         style="fill:#ffffff;fill-opacity:1;fill-rule:nonzero;stroke:none"
         id="path130"
         inkscape:connector-curvature="0" /></g><g
       id="g132"
       transform="translate(126.6104,79.3091)"><path
         d="m 0,0 h 3.006 v -21.043 h 9.017 v -3.006 H 0 Z"
         style="fill:#ffffff;fill-opacity:1;fill-rule:nonzero;stroke:none"
         id="path134"
         inkscape:connector-curvature="0" /></g><g
       id="g136"
       transform="translate(177.1807,58.2656)"><path
         d="m 0,0 c 4.988,0 9.016,4.028 9.016,9.018 0,4.991 -4.028,9.018 -9.016,9.018 -4.992,0 -9.02,-4.027 -9.02,-9.018 C -9.02,4.028 -4.992,0 0,0 m 0,21.043 c 6.643,0 12.023,-5.381 12.023,-12.025 0,-6.644 -5.38,-12.023 -12.023,-12.023 -6.646,0 -12.025,5.379 -12.025,12.023 0,6.644 5.379,12.025 12.025,12.025"
         style="fill:#ffffff;fill-opacity:1;fill-rule:nonzero;stroke:none"
         id="path138"
         inkscape:connector-curvature="0" /></g><g
       id="g140"
       transform="translate(190.7021,70.2896)"><path
         d="M 0,0 H 3.008 V 9.02 H 15.031 V 6.012 H 6.012 V 0 h 6.013 V -3.006 H 6.012 V -15.029 H 3.008 V -3.006 H 1.502 Z"
         style="fill:#ffffff;fill-opacity:1;fill-rule:nonzero;stroke:none"
         id="path142"
         inkscape:connector-curvature="0" /></g><g
       id="g144"
       transform="translate(204.9775,70.2896)"><path
         d="M 0,0 H 3.008 V 9.02 H 15.031 V 6.012 H 6.014 V 0 h 6.013 V -3.006 H 6.014 V -15.029 H 3.008 V -3.006 H 1.504 Z"
         style="fill:#ffffff;fill-opacity:1;fill-rule:nonzero;stroke:none"
         id="path146"
         inkscape:connector-curvature="0" /></g><g
       id="g148"
       transform="translate(219.2549,70.2896)"><path
         d="M 0,0 H 3.008 V 9.02 H 15.031 V 6.012 H 6.014 V 0 h 6.011 V -3.006 H 6.014 v -9.018 h 9.017 v -3.005 H 3.008 V -3.006 H 1.504 Z"
         style="fill:#ffffff;fill-opacity:1;fill-rule:nonzero;stroke:none"
         id="path150"
         inkscape:connector-curvature="0" /></g><g
       id="g152"
       transform="translate(233.5322,70.2896)"><path
         d="M 0,0 H 3.006 V 9.02 H 15.029 V 6.012 H 6.01 V 0 h 6.015 V -3.006 H 6.01 v -9.018 h 9.019 v -3.005 H 3.006 V -3.006 H 1.502 Z"
         style="fill:#ffffff;fill-opacity:1;fill-rule:nonzero;stroke:none"
         id="path154"
         inkscape:connector-curvature="0" /></g><path
       d="m 250.755,41.004 h -32.156 v 0.76 h 32.156 z"
       style="fill:#ffffff;fill-opacity:1;fill-rule:nonzero;stroke:none"
       id="path156"
       inkscape:connector-curvature="0" /><path
       d="M 71.239,41.004 H 38.671 v 0.76 h 32.568 z"
       style="fill:#ffffff;fill-opacity:1;fill-rule:nonzero;stroke:none"
       id="path158"
       inkscape:connector-curvature="0" /><g
       id="g160"
       transform="translate(102.3486,38.8887)"><path
         d="m 0,0 c -0.123,0 -0.281,0.006 -0.387,-0.066 -0.054,-0.036 -0.103,-0.102 -0.15,-0.16 -0.027,0.033 -0.061,0.061 -0.109,0.082 -0.127,0.061 -0.282,0.033 -0.411,-0.015 -0.255,-0.093 -0.351,0.075 -0.56,0.176 -0.162,0.074 -0.319,0.07 -0.481,0.002 C -2.48,-0.143 -2.609,0.344 -2.945,0.344 -3,0.344 -3.053,0.337 -3.107,0.33 -3.189,0.321 -3.24,0.324 -3.322,0.358 -3.488,0.428 -3.676,0.584 -3.811,0.701 -3.922,0.794 -4.057,0.91 -4.182,0.981 -4.256,1.024 -4.328,1.046 -4.416,1.032 -4.439,1.028 -4.463,1.021 -4.49,1.024 c -0.049,0.003 -0.108,0.027 -0.156,0.048 -0.036,0.031 -0.075,0.061 -0.112,0.092 0.006,0.01 0.008,0.021 0.012,0.026 0.016,0.039 0.029,0.076 0.033,0.119 0.018,0.165 -0.103,0.268 -0.236,0.339 -0.143,0.077 -0.262,0.105 -0.41,0.1 -0.108,0.119 -0.209,0.244 -0.305,0.372 -0.035,0.252 0.016,0.458 -0.254,0.62 -0.07,0.044 -0.143,0.074 -0.217,0.099 -0.177,0.313 -0.318,0.626 -0.367,0.933 0.223,-0.224 0.75,-0.302 0.988,-0.333 0.211,-0.027 0.426,-0.048 0.637,-0.08 0.113,-0.017 0.227,-0.043 0.338,-0.068 0.102,-0.023 0.201,-0.039 0.303,-0.053 0.375,-0.052 0.591,-0.125 0.914,-0.334 0.162,-0.102 0.328,-0.185 0.511,-0.233 0.094,-0.025 0.206,-0.037 0.293,-0.068 0.079,-0.026 0.127,-0.076 0.18,-0.14 0.299,-0.378 0.649,-0.276 0.971,-0.54 0.148,-0.123 0.318,-0.194 0.492,-0.272 0.088,-0.038 0.238,-0.102 0.295,-0.184 0.019,-0.031 0.029,-0.063 0.031,-0.1 0.004,-0.109 0.02,-0.213 0.065,-0.314 0.052,-0.125 0.14,-0.229 0.232,-0.329 C -0.121,0.576 0.016,0.436 0.146,0.287 0.172,0.258 0.199,0.224 0.213,0.187 0.172,0.087 0.127,0 0,0 M -6.299,4.7 V 4.586 c 0,-0.017 0,-0.093 -0.008,-0.107 C -6.314,4.463 -6.346,4.431 -6.359,4.419 -6.406,4.369 -6.451,4.316 -6.494,4.262 -6.461,4.411 -6.398,4.558 -6.299,4.7 m 2.08,0.933 C -3.547,5.64 -2.828,5.425 -2.205,5.181 -1.574,4.931 -0.971,4.623 -0.371,4.306 0.039,4.088 0.449,3.817 0.764,3.471 0.916,3.304 1.045,3.122 1.139,2.922 L 1.074,2.427 C 1.055,2.276 1.043,2.112 1.043,1.959 1.043,1.875 1.039,1.725 0.982,1.659 0.934,1.605 0.842,1.619 0.779,1.632 0.338,1.73 0.145,1.81 -0.232,2.089 -0.619,2.371 -1.002,2.662 -1.389,2.944 -1.605,3.103 -1.828,3.219 -2.078,3.314 -2.248,3.38 -2.432,3.435 -2.592,3.519 -2.635,3.541 -2.674,3.565 -2.711,3.591 -2.873,3.703 -3.008,3.756 -3.188,3.817 -3.334,3.866 -3.439,3.912 -3.563,4.008 -3.936,4.297 -4.342,4.369 -4.805,4.322 -5.191,4.284 -5.35,4.399 -5.52,4.738 c -0.078,0.157 -0.115,0.361 -0.111,0.54 0.428,0.246 0.924,0.348 1.412,0.355 M 1.555,0.807 C 1.695,1.076 1.785,1.344 1.809,1.648 1.832,1.98 1.771,2.318 1.693,2.641 1.588,3.065 1.375,3.435 1.08,3.76 0.732,4.143 0.285,4.444 -0.17,4.687 -0.785,5.011 -1.402,5.326 -2.049,5.579 -2.725,5.844 -3.492,6.069 -4.223,6.061 -5.119,6.052 -6.117,5.792 -6.648,5.011 -6.748,4.864 -6.826,4.708 -6.885,4.539 -6.949,4.356 -6.986,4.165 -7.002,3.973 -7.066,3.176 -6.893,2.491 -6.439,1.828 c 0.66,-0.971 1.828,-1.741 2.834,-2.308 0.734,-0.414 1.562,-0.65 2.408,-0.581 0.717,0.06 1.388,0.337 1.939,0.794 0.362,0.295 0.594,0.67 0.813,1.074"
         style="fill:#ffffff;fill-opacity:1;fill-rule:nonzero;stroke:none"
         id="path162"
         inkscape:connector-curvature="0" /></g><g
       id="g164"
       transform="translate(81.5186,38.8887)"><path
         d="m 0,0 c -0.123,0 -0.281,0.006 -0.385,-0.066 -0.054,-0.036 -0.105,-0.102 -0.15,-0.16 -0.027,0.033 -0.063,0.061 -0.11,0.082 -0.128,0.061 -0.281,0.033 -0.41,-0.015 -0.256,-0.093 -0.351,0.075 -0.562,0.176 -0.16,0.074 -0.317,0.07 -0.479,0.002 C -2.479,-0.143 -2.609,0.344 -2.943,0.344 -3,0.344 -3.053,0.337 -3.105,0.33 -3.189,0.321 -3.24,0.324 -3.318,0.358 -3.484,0.428 -3.676,0.584 -3.811,0.701 -3.922,0.794 -4.053,0.91 -4.18,0.981 -4.254,1.024 -4.328,1.046 -4.414,1.032 -4.439,1.028 -4.463,1.021 -4.488,1.024 c -0.049,0.003 -0.11,0.027 -0.155,0.048 -0.039,0.031 -0.076,0.061 -0.113,0.092 0.004,0.01 0.006,0.021 0.01,0.026 0.017,0.039 0.029,0.076 0.033,0.119 0.018,0.165 -0.101,0.268 -0.236,0.339 -0.143,0.077 -0.26,0.105 -0.408,0.1 -0.108,0.119 -0.211,0.244 -0.305,0.372 -0.035,0.252 0.014,0.458 -0.254,0.62 -0.072,0.044 -0.141,0.074 -0.219,0.099 -0.176,0.313 -0.316,0.626 -0.367,0.933 0.225,-0.224 0.75,-0.302 0.988,-0.333 0.211,-0.027 0.428,-0.048 0.639,-0.08 0.113,-0.017 0.227,-0.043 0.338,-0.068 0.1,-0.023 0.201,-0.039 0.301,-0.053 0.375,-0.052 0.593,-0.125 0.916,-0.334 0.16,-0.102 0.326,-0.185 0.511,-0.233 0.092,-0.025 0.204,-0.037 0.291,-0.068 0.079,-0.026 0.131,-0.076 0.182,-0.14 0.297,-0.378 0.65,-0.276 0.969,-0.54 0.148,-0.123 0.318,-0.194 0.492,-0.272 0.09,-0.038 0.24,-0.102 0.297,-0.184 0.021,-0.031 0.029,-0.063 0.029,-0.1 0.004,-0.109 0.024,-0.213 0.065,-0.314 0.052,-0.125 0.14,-0.229 0.232,-0.329 C -0.121,0.576 0.018,0.436 0.15,0.287 0.174,0.258 0.201,0.224 0.215,0.187 0.172,0.087 0.127,0 0,0 M -6.297,4.7 C -6.299,4.663 -6.299,4.624 -6.299,4.586 c 0,-0.017 0,-0.093 -0.006,-0.107 -0.007,-0.016 -0.041,-0.048 -0.054,-0.06 -0.047,-0.05 -0.09,-0.103 -0.135,-0.157 0.033,0.149 0.098,0.296 0.197,0.438 m 2.08,0.933 C -3.545,5.64 -2.828,5.425 -2.205,5.181 -1.572,4.931 -0.971,4.623 -0.371,4.306 0.041,4.088 0.449,3.817 0.764,3.471 0.918,3.304 1.045,3.122 1.143,2.922 L 1.076,2.427 C 1.055,2.276 1.043,2.112 1.043,1.959 1.043,1.875 1.039,1.725 0.982,1.659 0.937,1.605 0.842,1.619 0.781,1.632 0.338,1.73 0.146,1.81 -0.23,2.089 -0.617,2.371 -1,2.662 -1.387,2.944 c -0.217,0.159 -0.439,0.275 -0.689,0.37 -0.17,0.066 -0.356,0.121 -0.516,0.205 -0.043,0.022 -0.08,0.046 -0.119,0.072 -0.16,0.112 -0.295,0.165 -0.477,0.226 -0.146,0.049 -0.25,0.095 -0.375,0.191 -0.371,0.289 -0.777,0.361 -1.242,0.314 -0.386,-0.038 -0.543,0.077 -0.713,0.416 -0.08,0.157 -0.113,0.361 -0.111,0.54 0.426,0.246 0.924,0.348 1.412,0.355 M 1.555,0.807 C 1.697,1.076 1.789,1.344 1.809,1.648 1.832,1.98 1.773,2.318 1.695,2.641 1.59,3.065 1.375,3.435 1.082,3.76 0.732,4.143 0.285,4.444 -0.17,4.687 -0.783,5.011 -1.4,5.326 -2.047,5.579 -2.723,5.844 -3.49,6.069 -4.221,6.061 -5.119,6.052 -6.115,5.792 -6.646,5.011 -6.748,4.864 -6.826,4.708 -6.883,4.539 -6.947,4.356 -6.982,4.165 -7,3.973 -7.064,3.176 -6.893,2.491 -6.439,1.828 c 0.662,-0.971 1.828,-1.741 2.835,-2.308 0.735,-0.414 1.561,-0.65 2.407,-0.581 0.718,0.06 1.388,0.337 1.943,0.794 0.358,0.295 0.592,0.67 0.809,1.074"
         style="fill:#ffffff;fill-opacity:1;fill-rule:nonzero;stroke:none"
         id="path166"
         inkscape:connector-curvature="0" /></g><g
       id="g168"
       transform="translate(92.833,42.1328)"><path
         d="m 0,0 c -0.312,-1.39 -1.68,-2.747 -3.039,-3.222 0.004,0.056 0,0.113 -0.018,0.167 -0.123,0.391 -0.748,0.364 -1.017,0.61 -0.299,0.279 -0.852,0.466 -0.977,0.894 -0.015,0.051 -0.025,0.113 0,0.164 0.047,0.089 0.233,0.177 0.321,0.22 0.222,0.114 0.425,0.22 0.615,0.387 0.142,0.125 0.263,0.262 0.379,0.415 0.134,0.176 0.252,0.359 0.386,0.533 0.188,0.241 0.395,0.457 0.621,0.662 0.274,0.247 0.528,0.556 0.653,0.907 0.019,0.059 0.088,0.284 0.058,0.425 0.012,0.005 0.02,0.014 0.028,0.019 0.037,0.034 0.06,0.075 0.076,0.119 0.051,0.031 0.146,0.066 0.184,0.08 0.154,0.05 0.322,0.076 0.484,0.076 0.338,0 0.648,-0.11 0.896,-0.342 C 0.268,1.544 0.166,0.737 0,0 m -4.639,-3.438 c -0.427,0.015 -0.863,0.084 -1.261,0.238 0.054,0.114 0.261,0.15 0.365,0.165 0.174,0.023 0.474,0.084 0.512,0.292 0.013,-0.01 0.029,-0.019 0.043,-0.028 0.152,-0.094 0.32,-0.228 0.347,-0.415 0.014,-0.085 0,-0.168 -0.006,-0.252 m -2.166,0.833 c -0.537,0.603 -0.517,1.398 -0.263,2.145 0.172,0.382 0.47,0.79 0.742,1.107 0.39,0.458 0.855,0.879 1.363,1.204 0.483,0.308 1.621,0.895 2.133,0.443 L -2.805,2.271 -2.771,2.256 C -2.734,2.238 -2.693,2.219 -2.646,2.199 -2.693,2.155 -2.732,2.095 -2.754,2.021 -2.781,1.948 -2.813,1.887 -2.871,1.838 -2.928,1.789 -3.006,1.753 -3.072,1.718 -3.182,1.665 -3.287,1.609 -3.393,1.544 -3.49,1.48 -3.578,1.406 -3.641,1.303 -3.713,1.187 -3.742,1.046 -3.771,0.912 -3.816,0.698 -3.859,0.491 -3.918,0.281 c -0.096,-0.337 -0.357,-0.573 -0.641,-0.76 -0.17,-0.115 -0.351,-0.214 -0.531,-0.314 -0.16,-0.089 -0.332,-0.184 -0.472,-0.3 -0.139,-0.114 -0.243,-0.258 -0.278,-0.433 -0.053,-0.265 0.065,-0.514 0.24,-0.725 -0.031,0.004 -0.064,0.008 -0.097,0.008 -0.192,0 -0.524,-0.105 -0.699,-0.171 -0.135,-0.046 -0.282,-0.111 -0.409,-0.191 m 6.801,5.092 C -0.35,2.804 -0.779,2.964 -1.246,2.964 -1.461,2.964 -1.684,2.929 -1.889,2.861 -2.008,2.821 -2.16,2.755 -2.266,2.67 H -2.271 L -2.313,2.624 C -2.322,2.614 -2.33,2.605 -2.338,2.595 -2.35,2.602 -2.361,2.608 -2.375,2.614 -2.422,2.641 -2.471,2.667 -2.52,2.694 -2.717,2.844 -3.025,2.895 -3.262,2.895 -3.945,2.896 -4.697,2.551 -5.273,2.215 -5.385,2.15 -5.492,2.082 -5.6,2.01 -6.414,1.456 -7.133,0.644 -7.535,-0.261 -7.896,-1.08 -8.008,-2.024 -7.561,-2.829 V -2.83 l 0.022,-0.031 c 0.467,-0.804 1.281,-1.322 2.182,-1.505 0.746,-0.152 1.691,-0.125 2.429,0.084 0.225,0.049 0.446,0.122 0.658,0.213 0.215,0.091 0.42,0.202 0.616,0.328 1.295,0.83 2.082,2.148 2.289,3.663 0.125,0.883 0.056,1.92 -0.639,2.565"
         style="fill:#ffffff;fill-opacity:1;fill-rule:nonzero;stroke:none"
         id="path170"
         inkscape:connector-curvature="0" /></g><g
       id="g172"
       transform="translate(186.5576,39.0762)"><path
         d="m 0,0 c 0.016,0.036 0.043,0.071 0.066,0.099 0.133,0.149 0.27,0.29 0.405,0.437 0.088,0.1 0.175,0.204 0.23,0.33 C 0.742,0.967 0.76,1.07 0.764,1.18 0.766,1.216 0.775,1.248 0.795,1.279 0.85,1.361 1,1.425 1.092,1.464 c 0.172,0.078 0.342,0.149 0.49,0.272 0.32,0.263 0.672,0.161 0.973,0.54 0.049,0.064 0.099,0.113 0.177,0.14 0.088,0.031 0.2,0.042 0.293,0.068 0.186,0.048 0.352,0.131 0.512,0.233 0.322,0.208 0.541,0.281 0.914,0.333 0.102,0.015 0.201,0.031 0.303,0.054 0.111,0.025 0.225,0.05 0.338,0.068 0.209,0.032 0.428,0.053 0.637,0.08 0.24,0.03 0.765,0.109 0.988,0.332 C 6.668,3.278 6.527,2.964 6.35,2.651 6.275,2.626 6.203,2.596 6.133,2.553 5.863,2.39 5.914,2.185 5.879,1.933 5.783,1.805 5.682,1.679 5.576,1.561 5.426,1.566 5.309,1.538 5.162,1.461 5.033,1.39 4.908,1.287 4.93,1.121 4.932,1.079 4.945,1.041 4.961,1.002 4.965,0.997 4.969,0.986 4.973,0.976 4.936,0.945 4.898,0.915 4.859,0.885 4.814,0.864 4.754,0.839 4.705,0.836 4.678,0.833 4.654,0.841 4.629,0.845 4.543,0.858 4.471,0.836 4.396,0.793 4.271,0.722 4.139,0.606 4.027,0.513 3.891,0.397 3.701,0.24 3.535,0.17 3.457,0.137 3.406,0.133 3.322,0.142 3.268,0.149 3.215,0.157 3.158,0.157 2.824,0.157 2.695,-0.33 2.311,-0.169 2.15,-0.101 1.994,-0.096 1.832,-0.171 1.623,-0.271 1.525,-0.439 1.27,-0.346 1.143,-0.299 0.988,-0.271 0.859,-0.331 0.812,-0.353 0.779,-0.38 0.752,-0.413 0.705,-0.355 0.656,-0.29 0.602,-0.254 0.498,-0.181 0.338,-0.187 0.217,-0.187 0.088,-0.187 0.043,-0.101 0,0 M 6.709,4.074 C 6.666,4.129 6.623,4.182 6.574,4.232 6.562,4.243 6.529,4.276 6.52,4.292 6.514,4.305 6.514,4.382 6.514,4.398 c 0,0.039 0,0.077 -0.002,0.115 C 6.613,4.37 6.678,4.223 6.709,4.074 M 5.846,5.091 C 5.848,4.912 5.811,4.707 5.734,4.551 5.564,4.212 5.408,4.096 5.02,4.134 4.557,4.182 4.15,4.11 3.777,3.82 3.654,3.724 3.549,3.679 3.404,3.629 3.223,3.568 3.088,3.515 2.93,3.404 2.889,3.378 2.85,3.354 2.809,3.332 2.646,3.248 2.463,3.193 2.291,3.127 2.043,3.031 1.82,2.915 1.604,2.756 1.217,2.474 0.834,2.184 0.447,1.901 0.07,1.623 -0.121,1.542 -0.566,1.445 c -0.059,-0.014 -0.155,-0.028 -0.2,0.026 -0.056,0.066 -0.06,0.216 -0.06,0.3 0,0.153 -0.014,0.317 -0.033,0.468 l -0.067,0.495 c 0.098,0.2 0.225,0.382 0.379,0.549 C -0.232,3.629 0.174,3.9 0.588,4.119 1.184,4.436 1.787,4.744 2.422,4.993 3.041,5.238 3.76,5.452 4.434,5.446 4.922,5.438 5.418,5.336 5.846,5.091 M -0.529,-0.454 C 0.023,-0.912 0.697,-1.188 1.412,-1.248 2.26,-1.317 3.086,-1.082 3.818,-0.668 4.826,-0.101 5.994,0.669 6.654,1.64 7.107,2.303 7.279,2.988 7.217,3.786 7.199,3.978 7.162,4.169 7.1,4.352 7.041,4.52 6.963,4.677 6.863,4.823 6.332,5.604 5.334,5.864 4.437,5.874 3.707,5.882 2.939,5.657 2.264,5.391 1.617,5.138 1,4.823 0.387,4.499 -0.07,4.257 -0.516,3.956 -0.865,3.573 -1.16,3.248 -1.373,2.878 -1.477,2.453 -1.557,2.13 -1.615,1.792 -1.592,1.461 c 0.022,-0.304 0.11,-0.572 0.254,-0.842 0.217,-0.404 0.451,-0.778 0.809,-1.073"
         style="fill:#ffffff;fill-opacity:1;fill-rule:nonzero;stroke:none"
         id="path174"
         inkscape:connector-curvature="0" /></g><g
       id="g176"
       transform="translate(207.3877,39.0762)"><path
         d="m 0,0 c 0.016,0.036 0.039,0.071 0.066,0.099 0.131,0.149 0.27,0.29 0.401,0.437 0.092,0.1 0.178,0.204 0.232,0.33 0.043,0.101 0.059,0.204 0.065,0.314 0,0.036 0.009,0.068 0.029,0.099 C 0.85,1.361 1,1.425 1.088,1.464 1.264,1.542 1.432,1.613 1.582,1.736 1.9,1.999 2.254,1.897 2.553,2.276 2.604,2.34 2.654,2.389 2.732,2.416 2.82,2.447 2.932,2.458 3.025,2.484 3.209,2.532 3.373,2.615 3.537,2.717 3.857,2.925 4.076,2.998 4.451,3.05 4.553,3.065 4.652,3.081 4.75,3.104 4.863,3.129 4.977,3.154 5.09,3.172 5.301,3.204 5.518,3.225 5.729,3.252 5.967,3.282 6.494,3.361 6.717,3.584 6.668,3.278 6.525,2.964 6.35,2.651 6.273,2.626 6.201,2.596 6.131,2.553 5.863,2.39 5.912,2.185 5.879,1.933 5.783,1.805 5.68,1.679 5.574,1.561 5.426,1.566 5.307,1.538 5.162,1.461 5.031,1.39 4.908,1.287 4.928,1.121 4.932,1.079 4.945,1.041 4.961,1.002 4.963,0.997 4.967,0.986 4.973,0.976 4.936,0.945 4.896,0.915 4.859,0.885 4.811,0.864 4.75,0.839 4.703,0.836 4.678,0.833 4.654,0.841 4.629,0.845 4.541,0.858 4.469,0.836 4.395,0.793 4.27,0.722 4.135,0.606 4.025,0.513 3.891,0.397 3.701,0.24 3.535,0.17 3.455,0.137 3.404,0.133 3.32,0.142 3.266,0.149 3.215,0.157 3.158,0.157 2.824,0.157 2.691,-0.33 2.311,-0.169 2.15,-0.101 1.992,-0.096 1.832,-0.171 1.621,-0.271 1.527,-0.439 1.27,-0.346 1.141,-0.299 0.988,-0.271 0.857,-0.331 0.811,-0.353 0.777,-0.38 0.75,-0.413 0.705,-0.355 0.654,-0.29 0.602,-0.254 0.496,-0.181 0.338,-0.187 0.215,-0.187 0.086,-0.187 0.041,-0.101 0,0 M 6.707,4.074 C 6.666,4.129 6.621,4.182 6.574,4.232 6.561,4.243 6.527,4.276 6.52,4.292 6.514,4.305 6.514,4.382 6.514,4.398 c 0,0.039 0,0.077 -0.002,0.115 C 6.611,4.37 6.676,4.223 6.707,4.074 M 5.846,5.091 C 5.848,4.912 5.811,4.707 5.734,4.551 5.564,4.212 5.404,4.096 5.02,4.134 4.553,4.182 4.15,4.11 3.775,3.82 3.652,3.724 3.549,3.679 3.402,3.629 3.223,3.568 3.086,3.515 2.926,3.404 2.889,3.378 2.848,3.354 2.807,3.332 2.646,3.248 2.461,3.193 2.291,3.127 2.043,3.031 1.82,2.915 1.602,2.756 1.215,2.474 0.832,2.184 0.445,1.901 0.068,1.623 -0.123,1.542 -0.566,1.445 -0.627,1.431 -0.723,1.417 -0.77,1.471 c -0.054,0.066 -0.06,0.216 -0.06,0.3 0,0.153 -0.01,0.317 -0.031,0.468 l -0.065,0.495 c 0.096,0.2 0.225,0.382 0.375,0.549 C -0.234,3.629 0.176,3.9 0.586,4.119 1.186,4.436 1.789,4.744 2.42,4.993 3.041,5.238 3.76,5.452 4.432,5.446 4.92,5.438 5.418,5.336 5.846,5.091 m -6.375,-5.545 c 0.552,-0.458 1.222,-0.734 1.941,-0.794 0.846,-0.069 1.672,0.166 2.406,0.58 C 4.826,-0.101 5.992,0.669 6.654,1.64 7.107,2.303 7.279,2.988 7.215,3.786 7.199,3.978 7.162,4.169 7.098,4.352 7.039,4.52 6.963,4.677 6.863,4.823 6.33,5.604 5.334,5.864 4.437,5.874 3.705,5.882 2.939,5.657 2.264,5.391 1.615,5.138 0.998,4.823 0.385,4.499 -0.07,4.257 -0.52,3.956 -0.865,3.573 -1.162,3.248 -1.375,2.878 -1.48,2.453 -1.559,2.13 -1.619,1.792 -1.594,1.461 c 0.022,-0.304 0.11,-0.572 0.254,-0.842 0.219,-0.404 0.451,-0.778 0.811,-1.073"
         style="fill:#ffffff;fill-opacity:1;fill-rule:nonzero;stroke:none"
         id="path178"
         inkscape:connector-curvature="0" /></g><g
       id="g180"
       transform="translate(196.6377,44.2471)"><path
         d="M 0,0 C 0.248,0.231 0.559,0.342 0.895,0.342 1.057,0.342 1.227,0.315 1.381,0.266 1.42,0.251 1.514,0.217 1.564,0.186 1.578,0.142 1.604,0.101 1.641,0.067 1.65,0.062 1.656,0.053 1.666,0.048 1.637,-0.093 1.707,-0.318 1.729,-0.377 1.85,-0.729 2.105,-1.038 2.381,-1.284 2.607,-1.489 2.813,-1.705 3,-1.946 c 0.135,-0.175 0.254,-0.357 0.387,-0.533 0.115,-0.153 0.238,-0.29 0.379,-0.415 0.191,-0.168 0.394,-0.273 0.617,-0.387 0.088,-0.043 0.273,-0.131 0.318,-0.22 0.026,-0.052 0.016,-0.113 0,-0.164 C 4.578,-4.093 4.023,-4.28 3.723,-4.559 3.455,-4.806 2.832,-4.778 2.707,-5.169 2.691,-5.223 2.686,-5.28 2.691,-5.336 1.332,-4.861 -0.037,-3.504 -0.35,-2.114 -0.516,-1.377 -0.617,-0.57 0,0 m 4.283,-5.3 c 0.026,0.187 0.197,0.321 0.348,0.415 0.012,0.009 0.027,0.018 0.043,0.028 C 4.711,-5.065 5.01,-5.126 5.186,-5.149 5.289,-5.165 5.496,-5.2 5.551,-5.314 5.152,-5.468 4.717,-5.537 4.289,-5.552 4.283,-5.468 4.271,-5.385 4.283,-5.3 m 1.766,0.772 c -0.18,0.066 -0.508,0.171 -0.701,0.171 -0.032,0 -0.065,-0.004 -0.1,-0.009 0.18,0.212 0.295,0.461 0.242,0.725 -0.033,0.176 -0.138,0.32 -0.277,0.433 -0.141,0.117 -0.315,0.211 -0.473,0.301 -0.179,0.099 -0.361,0.199 -0.531,0.313 -0.281,0.188 -0.543,0.424 -0.641,0.761 -0.056,0.21 -0.101,0.416 -0.146,0.63 -0.027,0.135 -0.057,0.275 -0.131,0.392 -0.061,0.103 -0.148,0.177 -0.25,0.241 -0.103,0.065 -0.209,0.121 -0.318,0.174 -0.067,0.035 -0.143,0.071 -0.2,0.12 -0.058,0.048 -0.091,0.11 -0.117,0.182 -0.023,0.075 -0.062,0.135 -0.107,0.179 0.045,0.02 0.086,0.039 0.123,0.057 L 2.455,0.157 2.48,0.18 C 2.992,0.631 4.133,0.045 4.613,-0.264 5.121,-0.588 5.584,-1.009 5.975,-1.467 6.248,-1.785 6.547,-2.192 6.719,-2.575 6.973,-3.321 6.992,-4.116 6.455,-4.719 6.33,-4.64 6.18,-4.575 6.049,-4.528 m -7.035,2.336 c 0.211,-1.515 0.998,-2.833 2.293,-3.663 0.193,-0.126 0.4,-0.237 0.613,-0.328 0.211,-0.091 0.435,-0.165 0.66,-0.213 0.734,-0.209 1.68,-0.236 2.428,-0.084 0.902,0.183 1.717,0.701 2.181,1.504 l 0.02,0.032 v 0.001 C 7.658,-4.138 7.547,-3.194 7.184,-2.375 6.783,-1.47 6.062,-0.658 5.248,-0.104 5.145,-0.033 5.035,0.036 4.924,0.101 4.346,0.437 3.596,0.781 2.914,0.78 2.676,0.78 2.367,0.73 2.17,0.58 2.123,0.553 2.072,0.526 2.023,0.5 2.014,0.494 2,0.488 1.988,0.48 1.98,0.491 1.973,0.5 1.963,0.51 L 1.922,0.556 H 1.914 C 1.811,0.641 1.658,0.707 1.539,0.747 1.336,0.815 1.113,0.85 0.895,0.85 0.43,0.85 0,0.689 -0.346,0.373 -1.041,-0.272 -1.109,-1.31 -0.986,-2.192"
         style="fill:#ffffff;fill-opacity:1;fill-rule:nonzero;stroke:none"
         id="path182"
         inkscape:connector-curvature="0" /></g></g></g><text
   transform="matrix(1,0,0,-1,107.7036,37.1025)"
   style="font-variant:normal;font-weight:300;font-stretch:normal;font-size:10.2876997px;font-family:'Myriad Pro Light';-inkscape-font-specification:MyriadPro-Light;writing-mode:lr-tb;fill:#ffffff;fill-opacity:1;fill-rule:nonzero;stroke:none"
   id="text186"><tspan
     x="0 5.1644254 10.359714 15.153782 23.157612 25.328318 31.768417 39.772247 42.025253 47.72464 54.627686 59.380604 64.133522 68.927589"
     y="0"
     sodipodi:role="line"
     id="tspan184">PREMIUM COFFEE</tspan></text>

</g></svg>