<?xml version="1.0" encoding="iso-8859-1"?>
<!-- Generator: Adobe Illustrator 16.0.0, SVG Export Plug-In . SVG Version: 6.00 Build 0)  -->
<!DOCTYPE svg PUBLIC "-//W3C//DTD SVG 1.1//EN" "http://www.w3.org/Graphics/SVG/1.1/DTD/svg11.dtd">
<svg version="1.1" id="Capa_1" xmlns="http://www.w3.org/2000/svg" xmlns:xlink="http://www.w3.org/1999/xlink" x="0px" y="0px"
	 width="24.492px" height="24.492px" viewBox="0 0 24.492 24.492" style="enable-background:new 0 0 24.492 24.492;"
	 xml:space="preserve">
<g>
	<g>
		<path d="M23.523,22.412l-0.703-3.949c-0.186-1.053-1.151-2.051-2.195-2.271l-0.662-0.141V9.016C19.963,2.479,16.508,0,12.245,0
			C7.984,0,4.53,2.479,4.53,9.016v7.035l-0.661,0.141c-1.044,0.223-2.011,1.221-2.197,2.271l-0.704,3.949
			c-0.097,0.549,0.033,1.068,0.365,1.465c0.332,0.395,0.823,0.615,1.376,0.615h19.073c0.559,0,1.047-0.221,1.381-0.615
			C23.493,23.48,23.621,22.961,23.523,22.412z M13.717,5.607v1.996h-0.333L13.717,5.607z M13.141,8.611h0.075l0.085-0.508h0.417
			v0.629h2.423v1.121h-3V8.611z M8.328,8.611h3v1.242h-3V8.611z M6.934,9.449c0.101-0.027,0.198-0.004,0.3,0.051V8.611h0.304
			l0.291,0.168v1.574h4V8.665h0.812v1.688h4V8.779l0.081-0.047h0.537V9.5c0.104-0.055,0.201-0.078,0.301-0.051
			c0.329,0.1,0.474,0.699,0.32,1.344c-0.146,0.623-0.892,1.057-1.211,0.99c-0.049,0.158-0.125,0.318-0.191,0.479l-0.024-0.021
			c-0.858,1.014-2.544,1.071-3.462,1.021c-0.125-0.265-0.392-0.449-0.702-0.449c-0.433,0-0.781,0.35-0.781,0.781
			c0,0.43,0.35,0.78,0.781,0.78c0.254,0,0.468-0.129,0.61-0.313c0.162,0.011,0.342,0.019,0.542,0.019c0.653,0,1.476-0.08,2.23-0.373
			c-0.313,0.442-0.661,0.865-1.038,1.226c-0.125,0.116-0.249,0.229-0.373,0.334c-0.143,0.114-0.286,0.224-0.425,0.321l3.081,0.648
			l-1.647,1.922l-2.035,2.383l-0.516-2.383l-0.075-0.324l0.746-0.741l-0.935-0.937l-0.21-0.203l-0.208,0.209l-0.931,0.931
			l0.744,0.741l-0.074,0.324l-0.499,2.287l-2.016-2.287l-1.694-1.922l3.064-0.646c-0.145-0.096-0.287-0.206-0.429-0.319
			c-0.123-0.104-0.245-0.215-0.371-0.332c-0.893-0.854-1.662-2.032-2-3.151c-0.324,0.072-1.073-0.363-1.22-0.99
			C6.461,10.148,6.604,9.549,6.934,9.449z M22.543,23.361c-0.177,0.213-0.447,0.328-0.763,0.328h-3.714v-2.025
			c0-0.223-0.179-0.402-0.4-0.402c-0.221,0-0.399,0.18-0.399,0.402v2.025H7.225v-2.025c0-0.223-0.182-0.402-0.402-0.402
			c-0.224,0-0.4,0.18-0.4,0.402v2.025H2.708c-0.312,0-0.584-0.115-0.76-0.328c-0.179-0.211-0.245-0.498-0.19-0.807L2.462,18.6
			c0.13-0.727,0.848-1.469,1.568-1.623l0.499-0.102l2.14-0.453l1.521,1.73l3.82,4.34c0.077,0.086,0.189,0.133,0.303,0.133h0.004
			c0.115,0,0.226-0.049,0.299-0.137l3.714-4.336l1.481-1.732l2.148,0.455l0.497,0.102c0.721,0.154,1.438,0.896,1.571,1.625
			l0.701,3.953C22.789,22.863,22.722,23.15,22.543,23.361z"/>
	</g>
</g>
<g>
</g>
<g>
</g>
<g>
</g>
<g>
</g>
<g>
</g>
<g>
</g>
<g>
</g>
<g>
</g>
<g>
</g>
<g>
</g>
<g>
</g>
<g>
</g>
<g>
</g>
<g>
</g>
<g>
</g>
</svg>
